<svg width="1718px" height="387.2000366210937px" xmlns="http://www.w3.org/2000/svg" viewBox="-609 -118.60001831054686 1718 387.2000366210937" style="background: rgb(253, 253, 253);" preserveAspectRatio="xMidYMid"><defs><filter id="editing-jagged" x="-100%" y="-100%" width="300%" height="300%"><feTurbulence result="turb" baseFrequency="0.1" numOctaves="1" seed="1"></feTurbulence><feDisplacementMap in="SourceGraphic" in2="turb" scale="10"></feDisplacementMap></filter></defs><g filter="url(#editing-jagged)"><g transform="translate(-384.8999881744385, 146.1999969482422)"><path d="M72.60-140L72.60-140Q99-140 116-129.30L116-129.30L116-129.30Q133-118.60 133.40-97.60L133.40-97.60L133.40-95.20L92-95.20L92-96L92-96Q92-102 87.60-106L87.60-106L87.60-106Q83.20-110 74.20-110L74.20-110L74.20-110Q65.40-110 60.70-107.40L60.70-107.40L60.70-107.40Q56-104.80 56-101L56-101L56-101Q56-95.60 62.40-93L62.40-93L62.40-93Q68.80-90.40 83-87.60L83-87.60L83-87.60Q99.60-84.20 110.30-80.50L110.30-80.50L110.30-80.50Q121-76.80 129-68.40L129-68.40L129-68.40Q137-60 137.20-45.60L137.20-45.60L137.20-45.60Q137.20-21.20 120.70-9.40L120.70-9.40L120.70-9.40Q104.20 2.40 76.60 2.40L76.60 2.40L76.60 2.40Q44.40 2.40 26.50-8.40L26.50-8.40L26.50-8.40Q8.60-19.20 8.60-46.60L8.60-46.60L50.40-46.60L50.40-46.60Q50.40-36.20 55.80-32.70L55.80-32.70L55.80-32.70Q61.20-29.20 72.60-29.20L72.60-29.20L72.60-29.20Q81-29.20 86.50-31L86.50-31L86.50-31Q92-32.80 92-38.40L92-38.40L92-38.40Q92-43.40 85.90-45.90L85.90-45.90L85.90-45.90Q79.80-48.40 66-51.20L66-51.20L66-51.20Q49.20-54.80 38.20-58.70L38.20-58.70L38.20-58.70Q27.20-62.60 19-71.60L19-71.60L19-71.60Q10.80-80.60 10.80-96L10.80-96L10.80-96Q10.80-118.60 28.30-129.30L28.30-129.30L28.30-129.30Q45.80-140 72.60-140L72.60-140ZM236.40-137.60L236.40-137.60Q249.20-137.60 259.20-131.70L259.20-131.70L259.20-131.70Q269.20-125.80 274.80-115.50L274.80-115.50L274.80-115.50Q280.40-105.20 280.40-92.40L280.40-92.40L280.40-89.80L280.40-89.80Q280.40-77 274.80-66.60L274.80-66.60L274.80-66.60Q269.20-56.20 259.20-50.30L259.20-50.30L259.20-50.30Q249.20-44.40 236.40-44.40L236.40-44.40L203.40-44.40L203.40 0L159.20 0L159.20-137.60L236.40-137.60ZM203.40-105L203.40-76.60L221.60-76.60L221.60-76.60Q228.60-76.60 232.10-80.20L232.10-80.20L232.10-80.20Q235.60-83.80 235.60-90L235.60-90L235.60-91.60L235.60-91.60Q235.60-98 232.10-101.50L232.10-101.50L232.10-101.50Q228.60-105 221.60-105L221.60-105L203.40-105ZM442.60 0L395.80 0L390-19.40L341.80-19.40L336 0L290.80 0L341-137.60L392.40-137.60L442.60 0ZM365.60-99.20L351-50.20L380.80-50.20L366.40-99.20L365.60-99.20ZM524.80-140L524.80-140Q555.40-140 573.20-124.70L573.20-124.70L573.20-124.70Q591-109.40 591-81L591-81L548.80-81L548.80-81Q548.80-93 542.50-100L542.50-100L542.50-100Q536.20-107 524.60-107L524.60-107L524.60-107Q511.20-107 504.90-98.60L504.90-98.60L504.90-98.60Q498.60-90.20 498.60-75.20L498.60-75.20L498.60-62.40L498.60-62.40Q498.60-47.60 504.90-39.10L504.90-39.10L504.90-39.10Q511.20-30.60 524.20-30.60L524.20-30.60L524.20-30.60Q537-30.60 543.60-37.20L543.60-37.20L543.60-37.20Q550.20-43.80 550.20-55.80L550.20-55.80L591-55.80L591-55.80Q591-27.60 573.70-12.60L573.70-12.60L573.70-12.60Q556.40 2.40 524.80 2.40L524.80 2.40L524.80 2.40Q489.60 2.40 471.50-15.60L471.50-15.60L471.50-15.60Q453.40-33.60 453.40-68.80L453.40-68.80L453.40-68.80Q453.40-104 471.50-122L471.50-122L471.50-122Q489.60-140 524.80-140L524.80-140ZM614.80 0L614.80-137.60L733.80-137.60L733.80-104.60L659-104.60L659-85.60L723-85.60L723-54L659-54L659-33L735.20-33L735.20 0L614.80 0ZM964.80 0L918 0L912.20-19.40L864-19.40L858.20 0L813 0L863.20-137.60L914.60-137.60L964.80 0ZM887.80-99.20L873.20-50.20L903-50.20L888.60-99.20L887.80-99.20ZM1112-95.40L1112-95.40Q1112-82.80 1105.20-72.60L1105.20-72.60L1105.20-72.60Q1098.40-62.40 1085.40-57.60L1085.40-57.60L1116 0L1066.40 0L1042-50.20L1025.60-50.20L1025.60 0L981.40 0L981.40-137.60L1065.60-137.60L1065.60-137.60Q1080.40-137.60 1090.90-131.90L1090.90-131.90L1090.90-131.90Q1101.40-126.20 1106.70-116.50L1106.70-116.50L1106.70-116.50Q1112-106.80 1112-95.40L1112-95.40ZM1067-93.60L1067-93.60Q1067-99 1063.40-102.60L1063.40-102.60L1063.40-102.60Q1059.80-106.20 1054.60-106.20L1054.60-106.20L1025.60-106.20L1025.60-80.80L1054.60-80.80L1054.60-80.80Q1059.80-80.80 1063.40-84.50L1063.40-84.50L1063.40-84.50Q1067-88.20 1067-93.60L1067-93.60ZM1261.20-102.40L1216.20-102.40L1216.20 0L1172 0L1172-102.40L1126.80-102.40L1126.80-137.60L1261.20-137.60L1261.20-102.40Z" fill="#444"></path></g></g><style>text {
  font-size: 64px;
  font-family: Arial Black;
  dominant-baseline: central;
  text-anchor: middle;
}</style></svg>